<svg width="726" height="772" version="1.1" xmlns="http://www.w3.org/2000/svg" desc="Created with imagetracer.js version 1.2.6" ><path fill="rgb(226,122,0)" stroke="rgb(226,122,0)" stroke-width="1" opacity="1" d="M 310.5 51 L 314 51.5 L 310.5 52 L 310.5 51 Z " /><path fill="rgb(226,122,0)" stroke="rgb(226,122,0)" stroke-width="1" opacity="1" d="M 327.5 52 L 334 52.5 L 327.5 53 L 327.5 52 Z " /><path fill="rgb(226,122,0)" stroke="rgb(226,122,0)" stroke-width="1" opacity="1" d="M 352.5 52 L 355 52.5 L 352.5 53 L 352.5 52 Z " /><path fill="rgb(226,122,0)" stroke="rgb(226,122,0)" stroke-width="1" opacity="1" d="M 284.5 53 L 288 53.5 L 284.5 54 L 284.5 53 Z " /><path fill="rgb(226,122,0)" stroke="rgb(226,122,0)" stroke-width="1" opacity="1" d="M 276.5 54 L 279 54.5 L 276.5 55 L 276.5 54 Z " /><path fill="rgb(226,122,0)" stroke="rgb(226,122,0)" stroke-width="1" opacity="1" d="M 380.5 54 L 381.5 56 L 380.5 54 Z " /><path fill="rgb(226,122,0)" stroke="rgb(226,122,0)" stroke-width="1" opacity="1" d="M 268.5 55 L 271 55.5 L 268.5 56 L 268.5 55 Z " /><path fill="rgb(226,122,0)" stroke="rgb(226,122,0)" stroke-width="1" opacity="1" d="M 312.5 55 L 324 55.5 L 312.5 56 L 312.5 55 Z " /><path fill="rgb(226,122,0)" stroke="rgb(226,122,0)" stroke-width="1" opacity="1" d="M 353.5 55 L 360 55.5 L 353.5 56 L 353.5 55 Z " /><path fill="rgb(226,122,0)" stroke="rgb(226,122,0)" stroke-width="1" opacity="1" d="M 384.5 55 L 391 56.5 L 387.5 57 L 384.5 56 L 384.5 55 Z " /><path fill="rgb(226,122,0)" stroke="rgb(226,122,0)" stroke-width="1" opacity="1" d="M 298.5 56 L 304 56.5 L 298.5 57 L 298.5 56 Z " /><path fill="rgb(226,122,0)" stroke="rgb(226,122,0)" stroke-width="1" opacity="1" d="M 366.5 56 L 370 56.5 L 366.5 57 L 366.5 56 Z " /><path fill="rgb(226,122,0)" stroke="rgb(226,122,0)" stroke-width="1" opacity="1" d="M 254.5 57 L 257 57.5 L 254.5 58 L 254.5 57 Z " /><path fill="rgb(226,122,0)" stroke="rgb(226,122,0)" stroke-width="1" opacity="1" d="M 287.5 57 L 293 57.5 L 287.5 58 L 287.5 57 Z " /><path fill="rgb(226,122,0)" stroke="rgb(226,122,0)" stroke-width="1" opacity="1" d="M 374.5 57 L 377 57.5 L 374.5 58 L 374.5 57 Z " /><path fill="rgb(226,122,0)" stroke="rgb(226,122,0)" stroke-width="1" opacity="1" d="M 392.5 57 L 396 57.5 L 392.5 58 L 392.5 57 Z " /><path fill="rgb(226,122,0)" stroke="rgb(226,122,0)" stroke-width="1" opacity="1" d="M 279.5 58 L 283 58.5 L 279.5 59 L 279.5 58 Z " /><path fill="rgb(226,122,0)" stroke="rgb(226,122,0)" stroke-width="1" opacity="1" d="M 380.5 58 L 383 58.5 L 380.5 59 L 380.5 58 Z " /><path fill="rgb(226,122,0)" stroke="rgb(226,122,0)" stroke-width="1" opacity="1" d="M 272.5 59 L 276 59.5 L 272.5 60 L 272.5 59 Z " /><path fill="rgb(226,122,0)" stroke="rgb(226,122,0)" stroke-width="1" opacity="1" d="M 385.5 59 L 388 59.5 L 385.5 60 L 385.5 59 Z " /><path fill="rgb(226,122,0)" stroke="rgb(226,122,0)" stroke-width="1" opacity="1" d="M 265.5 60 L 269 60.5 L 265.5 61 L 265.5 60 Z " /><path fill="rgb(226,122,0)" stroke="rgb(226,122,0)" stroke-width="1" opacity="1" d="M 405.5 60 L 410 61.5 L 407.5 62 L 405.5 60 Z " /><path fill="rgb(226,122,0)" stroke="rgb(226,122,0)" stroke-width="1" opacity="1" d="M 260.5 61 L 263 61.5 L 260.5 62 L 260.5 61 Z " /><path fill="rgb(226,122,0)" stroke="rgb(226,122,0)" stroke-width="1" opacity="1" d="M 254.5 62 L 257 62.5 L 254.5 63 L 254.5 62 Z " /><path fill="rgb(226,122,0)" stroke="rgb(226,122,0)" stroke-width="1" opacity="1" d="M 249.5 63 L 252 63.5 L 249.5 64 L 249.5 63 Z " /><path fill="rgb(226,122,0)" stroke="rgb(226,122,0)" stroke-width="1" opacity="1" d="M 245.5 64 L 248 64.5 L 245.5 65 L 245.5 64 Z " /><path fill="rgb(226,122,0)" stroke="rgb(226,122,0)" stroke-width="1" opacity="1" d="M 240.5 65 L 243 65.5 L 240.5 66 L 240.5 65 Z " /><path fill="rgb(226,122,0)" stroke="rgb(226,122,0)" stroke-width="1" opacity="1" d="M 423.5 66 L 426 67.5 L 424.5 68 L 423.5 66 Z " /><path fill="rgb(226,122,0)" stroke="rgb(226,122,0)" stroke-width="1" opacity="1" d="M 199.5 77 L 202 78.5 L 200.5 79 L 199.5 77 Z " /><path fill="rgb(226,122,0)" stroke="rgb(226,122,0)" stroke-width="1" opacity="1" d="M 195.5 80 L 197 80.5 L 193.5 82 L 193.5 81 L 195.5 80 Z " /><path fill="rgb(226,122,0)" stroke="rgb(226,122,0)" stroke-width="1" opacity="1" d="M 186.5 83 L 187.5 85 L 186.5 83 Z " /><path fill="rgb(226,122,0)" stroke="rgb(226,122,0)" stroke-width="1" opacity="1" d="M 184.5 84 L 185.5 86 L 184.5 84 Z " /><path fill="rgb(226,122,0)" stroke="rgb(226,122,0)" stroke-width="1" opacity="1" d="M 179.5 88 L 178.5 90 L 176.5 91 L 177.5 89 L 179.5 88 Z " /><path fill="rgb(226,122,0)" stroke="rgb(226,122,0)" stroke-width="1" opacity="1" d="M 172.5 92 L 171.5 94 L 172.5 92 Z " /><path fill="rgb(226,122,0)" stroke="rgb(226,122,0)" stroke-width="1" opacity="1" d="M 165.5 95 L 168 95.5 Q 165.9 98.8 165.5 95 Z " /><path fill="rgb(226,122,0)" stroke="rgb(226,122,0)" stroke-width="1" opacity="1" d="M 161.5 99 L 160.5 101 L 161.5 99 Z " /><path fill="rgb(226,122,0)" stroke="rgb(226,122,0)" stroke-width="1" opacity="1" d="M 472.5 100 L 474.5 103 L 472.5 100 Z " /><path fill="rgb(226,122,0)" stroke="rgb(226,122,0)" stroke-width="1" opacity="1" d="M 158.5 101 L 157.5 103 L 158.5 101 Z " /><path fill="rgb(226,122,0)" stroke="rgb(226,122,0)" stroke-width="1" opacity="1" d="M 154.5 104 L 153.5 106 L 154.5 104 Z " /><path fill="rgb(226,122,0)" stroke="rgb(226,122,0)" stroke-width="1" opacity="1" d="M 150.5 107 L 148.5 110 L 150.5 107 Z " /><path fill="rgb(226,122,0)" stroke="rgb(226,122,0)" stroke-width="1" opacity="1" d="M 480.5 107 L 493.5 121 L 480.5 107 Z " /><path fill="rgb(226,122,0)" stroke="rgb(226,122,0)" stroke-width="1" opacity="1" d="M 144.5 111 L 145 112.5 L 139 117.5 L 144.5 111 Z " /><path fill="rgb(226,122,0)" stroke="rgb(226,122,0)" stroke-width="1" opacity="1" d="M 133.5 123 L 135.5 126 L 133.5 123 Z " /><path fill="rgb(226,122,0)" stroke="rgb(226,122,0)" stroke-width="1" opacity="1" d="M 137.5 126 L 139.5 129 L 137.5 126 Z " /><path fill="rgb(226,122,0)" stroke="rgb(226,122,0)" stroke-width="1" opacity="1" d="M 498.5 126 L 500.5 129 L 498.5 126 Z " /><path fill="rgb(226,122,0)" stroke="rgb(226,122,0)" stroke-width="1" opacity="1" d="M 143.5 131 L 149.5 138 L 143.5 131 Z " /><path fill="rgb(226,122,0)" stroke="rgb(226,122,0)" stroke-width="1" opacity="1" d="M 503.5 132 L 505.5 135 L 503.5 132 Z " /><path fill="rgb(226,122,0)" stroke="rgb(226,122,0)" stroke-width="1" opacity="1" d="M 113.5 135 L 122.5 136 Q 134.4 143.1 143 153.5 Q 162.3 175.7 175 204.5 L 183 228.5 L 184 239.5 L 185 240.5 L 185 254.5 L 184 258 Q 173.7 264.4 153.5 262 L 120.5 255 L 85.5 243 L 58 230.5 L 71 202.5 L 95 158.5 L 105 143.5 L 113.5 135 Z M 111 184 Q 103 189 101 200 L 103 210 L 108 214 L 112 214 L 119 206 L 121 198 L 119 189 L 115 184 L 111 184 Z " /><path fill="rgb(226,122,0)" stroke="rgb(226,122,0)" stroke-width="1" opacity="1" d="M 507.5 137 L 508.5 139 L 507.5 137 Z " /><path fill="rgb(226,122,0)" stroke="rgb(226,122,0)" stroke-width="1" opacity="1" d="M 280.5 141 L 284 141.5 L 280.5 142 L 280.5 141 Z " /><path fill="rgb(226,122,0)" stroke="rgb(226,122,0)" stroke-width="1" opacity="1" d="M 510.5 141 L 511.5 143 L 510.5 141 Z " /><path fill="rgb(226,122,0)" stroke="rgb(226,122,0)" stroke-width="1" opacity="1" d="M 154.5 143 L 156.5 146 L 154.5 143 Z " /><path fill="rgb(226,122,0)" stroke="rgb(226,122,0)" stroke-width="1" opacity="1" d="M 275.5 143 L 273.5 146 L 275.5 143 Z " /><path fill="rgb(226,122,0)" stroke="rgb(226,122,0)" stroke-width="1" opacity="1" d="M 288.5 143 L 289.5 145 L 288.5 143 Z " /><path fill="rgb(226,122,0)" stroke="rgb(226,122,0)" stroke-width="1" opacity="1" d="M 513.5 145 L 514.5 147 L 513.5 145 Z " /><path fill="rgb(226,122,0)" stroke="rgb(226,122,0)" stroke-width="1" opacity="1" d="M 291.5 146 L 292.5 148 L 291.5 146 Z " /><path fill="rgb(226,122,0)" stroke="rgb(226,122,0)" stroke-width="1" opacity="1" d="M 271.5 147 L 270.5 149 L 271.5 147 Z " /><path fill="rgb(226,122,0)" stroke="rgb(226,122,0)" stroke-width="1" opacity="1" d="M 158.5 148 L 159.5 150 L 158.5 148 Z " /><path fill="rgb(226,122,0)" stroke="rgb(226,122,0)" stroke-width="1" opacity="1" d="M 515.5 148 L 516.5 150 L 515.5 148 Z " /><path fill="rgb(226,122,0)" stroke="rgb(226,122,0)" stroke-width="1" opacity="1" d="M 161.5 152 L 162.5 154 L 161.5 152 Z " /><path fill="rgb(226,122,0)" stroke="rgb(226,122,0)" stroke-width="1" opacity="1" d="M 293.5 154 L 294 156.5 L 293 156.5 L 293.5 154 Z " /><path fill="rgb(226,122,0)" stroke="rgb(226,122,0)" stroke-width="1" opacity="1" d="M 164.5 156 L 165.5 158 L 164.5 156 Z " /><path fill="rgb(226,122,0)" stroke="rgb(226,122,0)" stroke-width="1" opacity="1" d="M 166.5 159 L 167.5 161 L 166.5 159 Z " /><path fill="rgb(226,122,0)" stroke="rgb(226,122,0)" stroke-width="1" opacity="1" d="M 298.5 162 L 299 164.5 L 298 164.5 L 298.5 162 Z " /><path fill="rgb(226,122,0)" stroke="rgb(226,122,0)" stroke-width="1" opacity="1" d="M 262.5 181 L 263 183.5 L 262 183.5 L 262.5 181 Z " /><path fill="rgb(226,122,0)" stroke="rgb(226,122,0)" stroke-width="1" opacity="1" d="M 176 183 L 178 183.5 L 176 184.5 L 176 183 Z " /><path fill="rgb(226,122,0)" stroke="rgb(226,122,0)" stroke-width="1" opacity="1" d="M 181.5 190 L 184 195.5 Q 181.5 197 185 198.5 L 184.5 200 L 184 198 Q 181.3 199.1 182 196.5 L 182.5 195 Q 180.3 195.8 181 193.5 L 181 191.5 L 181.5 190 Z " /><path fill="rgb(226,122,0)" stroke="rgb(226,122,0)" stroke-width="1" opacity="1" d="M 261.5 192 L 264 192.5 Q 261.9 195.8 261.5 192 Z " /><path fill="rgb(226,122,0)" stroke="rgb(226,122,0)" stroke-width="1" opacity="1" d="M 264.5 194 L 265 196 L 263 195.5 L 264.5 194 Z " /><path fill="rgb(226,122,0)" stroke="rgb(226,122,0)" stroke-width="1" opacity="1" d="M 545 195 L 547 195.5 L 545 196.5 L 545 195 Z " /><path fill="rgb(226,122,0)" stroke="rgb(226,122,0)" stroke-width="1" opacity="1" d="M 548.5 199 L 548 200.5 L 547.5 202 L 547 200.5 L 548.5 199 Z " /><path fill="rgb(226,122,0)" stroke="rgb(226,122,0)" stroke-width="1" opacity="1" d="M 184.5 201 L 187 202.5 Q 185.5 205.5 184 202.5 L 184.5 201 Z " /><path fill="rgb(226,122,0)" stroke="rgb(226,122,0)" stroke-width="1" opacity="1" d="M 279.5 201 L 278.5 203 L 279.5 201 Z " /><path fill="rgb(226,122,0)" stroke="rgb(226,122,0)" stroke-width="1" opacity="1" d="M 264.5 202 L 267.5 206 L 264.5 202 Z " /><path fill="rgb(226,122,0)" stroke="rgb(226,122,0)" stroke-width="1" opacity="1" d="M 272.5 203 Q 274.8 202.3 274 204.5 L 272.5 203 Z " /><path fill="rgb(226,122,0)" stroke="rgb(226,122,0)" stroke-width="1" opacity="1" d="M 549.5 203 L 552 209.5 L 550 208.5 Q 552.5 207 549 205.5 L 549.5 203 Z " /><path fill="rgb(226,122,0)" stroke="rgb(226,122,0)" stroke-width="1" opacity="1" d="M 189.5 211 L 189 212.5 L 188.5 214 L 187.5 212 L 189.5 211 Z " /><path fill="rgb(226,122,0)" stroke="rgb(226,122,0)" stroke-width="1" opacity="1" d="M 552 211 L 554 211.5 L 552 212.5 L 552 211 Z " /><path fill="rgb(226,122,0)" stroke="rgb(226,122,0)" stroke-width="1" opacity="1" d="M 555.5 217 L 556 219 L 554 218.5 L 555.5 217 Z " /><path fill="rgb(226,122,0)" stroke="rgb(226,122,0)" stroke-width="1" opacity="1" d="M 193.5 220 L 194 222.5 L 192 223.5 L 193.5 220 Z " /><path fill="rgb(226,122,0)" stroke="rgb(226,122,0)" stroke-width="1" opacity="1" d="M 556.5 220 L 560 227.5 L 558.5 227 L 557 226.5 L 558 224 L 556 223.5 L 556.5 222 L 555 221.5 L 556.5 220 Z " /><path fill="rgb(226,122,0)" stroke="rgb(226,122,0)" stroke-width="1" opacity="1" d="M 194.5 226 L 195 230 L 193 229.5 L 194.5 226 Z " /><path fill="rgb(226,122,0)" stroke="rgb(226,122,0)" stroke-width="1" opacity="1" d="M 558.5 229 Q 561.8 227.9 561 230.5 L 559.5 233 L 559 231.5 L 559.5 230 L 558.5 229 Z " /><path fill="rgb(226,122,0)" stroke="rgb(226,122,0)" stroke-width="1" opacity="1" d="M 561.5 233 L 562.5 235 L 560.5 236 L 561 234.5 L 561.5 233 Z " /><path fill="rgb(226,122,0)" stroke="rgb(226,122,0)" stroke-width="1" opacity="1" d="M 562.5 237 L 564 237.5 L 561.5 239 L 562.5 237 Z " /><path fill="rgb(226,122,0)" stroke="rgb(226,122,0)" stroke-width="1" opacity="1" d="M 563.5 239 L 564.5 241 L 562.5 242 L 563 240.5 L 563.5 239 Z " /><path fill="rgb(226,122,0)" stroke="rgb(226,122,0)" stroke-width="1" opacity="1" d="M 194.5 244 L 195 246.5 L 194 246.5 L 194.5 244 Z " /><path fill="rgb(226,122,0)" stroke="rgb(226,122,0)" stroke-width="1" opacity="1" d="M 56 248 L 74.5 256 L 105.5 267 L 132.5 274 L 144 275 L 138.5 282 L 49.5 357 L 48 355.5 L 48 340.5 L 47 339.5 L 47 299.5 L 48 298.5 L 48 286.5 L 49 285.5 L 50 271.5 L 56 248 Z " /><path fill="rgb(226,122,0)" stroke="rgb(226,122,0)" stroke-width="1" opacity="1" d="M 567.5 252 L 568.5 254 L 566.5 255 L 567 253.5 L 567.5 252 Z " /><path fill="rgb(226,122,0)" stroke="rgb(226,122,0)" stroke-width="1" opacity="1" d="M 569.5 259 L 570 260.5 L 568 261.5 L 569.5 259 Z " /><path fill="rgb(226,122,0)" stroke="rgb(226,122,0)" stroke-width="1" opacity="1" d="M 571.5 266 L 572.5 268 L 571.5 266 Z " /><path fill="rgb(226,122,0)" stroke="rgb(226,122,0)" stroke-width="1" opacity="1" d="M 182.5 267 L 180.5 270 L 182.5 267 Z " /><path fill="rgb(226,122,0)" stroke="rgb(226,122,0)" stroke-width="1" opacity="1" d="M 176.5 270 L 179 270.5 Q 176.9 273.8 176.5 270 Z " /><path fill="rgb(226,122,0)" stroke="rgb(226,122,0)" stroke-width="1" opacity="1" d="M 163.5 275 L 167 275.5 L 163.5 276 L 163.5 275 Z " /><path fill="rgb(226,122,0)" stroke="rgb(226,122,0)" stroke-width="1" opacity="1" d="M 153.5 277 L 152.5 279 L 153.5 277 Z " /><path fill="rgb(226,122,0)" stroke="rgb(226,122,0)" stroke-width="1" opacity="1" d="M 148.5 281 L 146.5 284 L 148.5 281 Z " /><path fill="rgb(226,122,0)" stroke="rgb(226,122,0)" stroke-width="1" opacity="1" d="M 141.5 287 L 139.5 290 L 141.5 287 Z " /><path fill="rgb(226,122,0)" stroke="rgb(226,122,0)" stroke-width="1" opacity="1" d="M 575.5 289 L 575 290.5 L 574.5 292 L 574 290.5 L 575.5 289 Z " /><path fill="rgb(226,122,0)" stroke="rgb(226,122,0)" stroke-width="1" opacity="1" d="M 135.5 292 L 132.5 296 L 135.5 292 Z " /><path fill="rgb(226,122,0)" stroke="rgb(226,122,0)" stroke-width="1" opacity="1" d="M 128.5 298 L 126.5 301 L 128.5 298 Z " /><path fill="rgb(226,122,0)" stroke="rgb(226,122,0)" stroke-width="1" opacity="1" d="M 577.5 298 L 577 299.5 L 576.5 301 L 576 299.5 L 577.5 298 Z " /><path fill="rgb(226,122,0)" stroke="rgb(226,122,0)" stroke-width="1" opacity="1" d="M 122.5 303 L 120.5 306 L 122.5 303 Z " /><path fill="rgb(226,122,0)" stroke="rgb(226,122,0)" stroke-width="1" opacity="1" d="M 115.5 309 L 113.5 312 L 115.5 309 Z " /><path fill="rgb(226,122,0)" stroke="rgb(226,122,0)" stroke-width="1" opacity="1" d="M 108.5 315 L 106.5 318 L 108.5 315 Z " /><path fill="rgb(226,122,0)" stroke="rgb(226,122,0)" stroke-width="1" opacity="1" d="M 581.5 318 L 581 319.5 L 580.5 321 L 580 319.5 L 581.5 318 Z " /><path fill="rgb(226,122,0)" stroke="rgb(226,122,0)" stroke-width="1" opacity="1" d="M 102.5 320 L 100.5 323 L 102.5 320 Z " /><path fill="rgb(226,122,0)" stroke="rgb(226,122,0)" stroke-width="1" opacity="1" d="M 95.5 326 L 93.5 329 L 95.5 326 Z " /><path fill="rgb(226,122,0)" stroke="rgb(226,122,0)" stroke-width="1" opacity="1" d="M 585.5 329 Q 588.5 330.5 585.5 332 L 585.5 329 Z " /><path fill="rgb(226,122,0)" stroke="rgb(226,122,0)" stroke-width="1" opacity="1" d="M 89.5 331 L 87.5 334 L 89.5 331 Z " /><path fill="rgb(226,122,0)" stroke="rgb(226,122,0)" stroke-width="1" opacity="1" d="M 585.5 336 L 587.5 339 L 585.5 336 Z " /><path fill="rgb(226,122,0)" stroke="rgb(226,122,0)" stroke-width="1" opacity="1" d="M 82.5 337 L 80.5 340 L 82.5 337 Z " /><path fill="rgb(226,122,0)" stroke="rgb(226,122,0)" stroke-width="1" opacity="1" d="M 595.5 338 Q 597.8 337.3 597 339.5 L 595.5 338 Z " /><path fill="rgb(226,122,0)" stroke="rgb(226,122,0)" stroke-width="1" opacity="1" d="M 598.5 339 L 602 340.5 L 599.5 341 L 598.5 339 Z " /><path fill="rgb(226,122,0)" stroke="rgb(226,122,0)" stroke-width="1" opacity="1" d="M 603.5 340 L 606 341.5 L 603 342 L 603.5 340 Z " /><path fill="rgb(226,122,0)" stroke="rgb(226,122,0)" stroke-width="1" opacity="1" d="M 642.5 340 L 645 340.5 L 642.5 341 L 642.5 340 Z " /><path fill="rgb(226,122,0)" stroke="rgb(226,122,0)" stroke-width="1" opacity="1" d="M 668.5 340 L 672 341.5 L 669.5 342 L 668.5 340 Z " /><path fill="rgb(226,122,0)" stroke="rgb(226,122,0)" stroke-width="1" opacity="1" d="M 616.5 341 L 624 341.5 L 616.5 342 L 616.5 341 Z " /><path fill="rgb(226,122,0)" stroke="rgb(226,122,0)" stroke-width="1" opacity="1" d="M 663.5 341 L 666 341.5 L 663.5 342 L 663.5 341 Z " /><path fill="rgb(226,122,0)" stroke="rgb(226,122,0)" stroke-width="1" opacity="1" d="M 635.5 342 L 639 342.5 L 635.5 343 L 635.5 342 Z " /><path fill="rgb(226,122,0)" stroke="rgb(226,122,0)" stroke-width="1" opacity="1" d="M 643.5 344 L 655 344.5 L 643.5 345 L 643.5 344 Z " /><path fill="rgb(226,122,0)" stroke="rgb(226,122,0)" stroke-width="1" opacity="1" d="M 663.5 344 L 668 344.5 L 663.5 345 L 663.5 344 Z " /><path fill="rgb(226,122,0)" stroke="rgb(226,122,0)" stroke-width="1" opacity="1" d="M 610.5 345 L 634 345.5 L 610.5 346 L 610.5 345 Z " /><path fill="rgb(226,122,0)" stroke="rgb(226,122,0)" stroke-width="1" opacity="1" d="M 672.5 346 L 673.5 348 L 672.5 346 Z " /><path fill="rgb(226,122,0)" stroke="rgb(226,122,0)" stroke-width="1" opacity="1" d="M 76.5 350 L 77 353 L 75 352.5 L 76.5 350 Z " /><path fill="rgb(226,122,0)" stroke="rgb(226,122,0)" stroke-width="1" opacity="1" d="M 77.5 358 L 78 360.5 L 76 361.5 L 77.5 358 Z " /><path fill="rgb(226,122,0)" stroke="rgb(226,122,0)" stroke-width="1" opacity="1" d="M 72 359 Q 75.3 357.9 74 362 Q 70.7 363.1 72 359 Z " /><path fill="rgb(226,122,0)" stroke="rgb(226,122,0)" stroke-width="1" opacity="1" d="M 73.5 368 Q 75.8 367.3 75 369.5 L 75.5 371 Q 73.3 371.8 74 369.5 L 73.5 368 Z " /><path fill="rgb(226,122,0)" stroke="rgb(226,122,0)" stroke-width="1" opacity="1" d="M 81.5 380 L 82 381.5 L 80 382.5 L 81.5 380 Z " /><path fill="rgb(226,122,0)" stroke="rgb(226,122,0)" stroke-width="1" opacity="1" d="M 82.5 399 Q 84.8 398.3 84 400.5 L 82.5 399 Z " /><path fill="rgb(226,122,0)" stroke="rgb(226,122,0)" stroke-width="1" opacity="1" d="M 85.5 406 L 88 407.5 L 87 410 Q 90 408.8 89 412.5 L 89.5 415 L 91 415.5 L 89 416.5 L 85.5 406 Z " /><path fill="rgb(226,122,0)" stroke="rgb(226,122,0)" stroke-width="1" opacity="1" d="M 91.5 420 Q 94.5 421.5 91.5 423 L 91.5 420 Z " /><path fill="rgb(226,122,0)" stroke="rgb(226,122,0)" stroke-width="1" opacity="1" d="M 94.5 425 L 94.5 428 Q 91.5 426.5 94.5 425 Z " /><path fill="rgb(226,122,0)" stroke="rgb(226,122,0)" stroke-width="1" opacity="1" d="M 622.5 432 L 621.5 434 L 622.5 432 Z " /><path fill="rgb(226,122,0)" stroke="rgb(226,122,0)" stroke-width="1" opacity="1" d="M 97 434 L 99 434.5 L 97 435.5 L 97 434 Z " /><path fill="rgb(226,122,0)" stroke="rgb(226,122,0)" stroke-width="1" opacity="1" d="M 103.5 438 L 104.5 440 L 103.5 438 Z " /><path fill="rgb(226,122,0)" stroke="rgb(226,122,0)" stroke-width="1" opacity="1" d="M 617.5 438 L 616.5 440 L 617.5 438 Z " /><path fill="rgb(226,122,0)" stroke="rgb(226,122,0)" stroke-width="1" opacity="1" d="M 611.5 445 L 610.5 447 L 611.5 445 Z " /><path fill="rgb(226,122,0)" stroke="rgb(226,122,0)" stroke-width="1" opacity="1" d="M 109.5 448 L 110.5 450 L 109.5 448 Z " /><path fill="rgb(226,122,0)" stroke="rgb(226,122,0)" stroke-width="1" opacity="1" d="M 111.5 451 L 112.5 453 L 111.5 451 Z " /><path fill="rgb(226,122,0)" stroke="rgb(226,122,0)" stroke-width="1" opacity="1" d="M 604.5 453 L 604 454.5 Q 604.8 456.8 602.5 456 L 599 458.5 L 604.5 453 Z " /><path fill="rgb(226,122,0)" stroke="rgb(226,122,0)" stroke-width="1" opacity="1" d="M 113.5 454 L 114.5 456 L 113.5 454 Z " /><path fill="rgb(226,122,0)" stroke="rgb(226,122,0)" stroke-width="1" opacity="1" d="M 119.5 462 L 120.5 464 L 119.5 462 Z " /><path fill="rgb(226,122,0)" stroke="rgb(226,122,0)" stroke-width="1" opacity="1" d="M 122.5 466 L 124.5 469 L 122.5 466 Z " /><path fill="rgb(226,122,0)" stroke="rgb(226,122,0)" stroke-width="1" opacity="1" d="M 127.5 472 L 130.5 476 L 127.5 472 Z " /><path fill="rgb(226,122,0)" stroke="rgb(226,122,0)" stroke-width="1" opacity="1" d="M 585.5 472 L 579.5 479 L 585.5 472 Z " /><path fill="rgb(226,122,0)" stroke="rgb(226,122,0)" stroke-width="1" opacity="1" d="M 573.5 483 L 570.5 487 L 573.5 483 Z " /><path fill="rgb(226,122,0)" stroke="rgb(226,122,0)" stroke-width="1" opacity="1" d="M 143.5 488 L 147.5 493 L 143.5 488 Z " /><path fill="rgb(226,122,0)" stroke="rgb(226,122,0)" stroke-width="1" opacity="1" d="M 565.5 490 L 564.5 492 L 565.5 490 Z " /><path fill="rgb(226,122,0)" stroke="rgb(226,122,0)" stroke-width="1" opacity="1" d="M 560.5 494 L 559.5 496 L 560.5 494 Z " /><path fill="rgb(226,122,0)" stroke="rgb(226,122,0)" stroke-width="1" opacity="1" d="M 151.5 495 L 153.5 498 L 151.5 495 Z " /><path fill="rgb(226,122,0)" stroke="rgb(226,122,0)" stroke-width="1" opacity="1" d="M 556.5 497 L 554.5 500 L 556.5 497 Z " /><path fill="rgb(226,122,0)" stroke="rgb(226,122,0)" stroke-width="1" opacity="1" d="M 156.5 499 L 157.5 501 L 156.5 499 Z " /><path fill="rgb(226,122,0)" stroke="rgb(226,122,0)" stroke-width="1" opacity="1" d="M 551.5 501 L 550.5 503 L 551.5 501 Z " /><path fill="rgb(226,122,0)" stroke="rgb(226,122,0)" stroke-width="1" opacity="1" d="M 164.5 505 L 165.5 507 L 164.5 505 Z " /><path fill="rgb(226,122,0)" stroke="rgb(226,122,0)" stroke-width="1" opacity="1" d="M 544.5 506 L 543.5 508 L 544.5 506 Z " /><path fill="rgb(226,122,0)" stroke="rgb(226,122,0)" stroke-width="1" opacity="1" d="M 176.5 513 L 177.5 515 L 176.5 513 Z " /><path fill="rgb(226,122,0)" stroke="rgb(226,122,0)" stroke-width="1" opacity="1" d="M 532.5 514 L 531.5 516 L 532.5 514 Z " /><path fill="rgb(226,122,0)" stroke="rgb(226,122,0)" stroke-width="1" opacity="1" d="M 529.5 516 L 528.5 518 L 529.5 516 Z " /><path fill="rgb(226,122,0)" stroke="rgb(226,122,0)" stroke-width="1" opacity="1" d="M 524.5 519 L 523.5 521 L 524.5 519 Z " /><path fill="rgb(226,122,0)" stroke="rgb(226,122,0)" stroke-width="1" opacity="1" d="M 519.5 522 L 518.5 524 L 519.5 522 Z " /><path fill="rgb(226,122,0)" stroke="rgb(226,122,0)" stroke-width="1" opacity="1" d="M 514.5 525 L 515.5 527 L 514.5 525 Z " /><path fill="rgb(226,122,0)" stroke="rgb(226,122,0)" stroke-width="1" opacity="1" d="M 512.5 526 L 511.5 528 L 512.5 526 Z " /><path fill="rgb(226,122,0)" stroke="rgb(226,122,0)" stroke-width="1" opacity="1" d="M 496.5 534 L 498 534.5 L 494.5 536 L 494.5 535 L 496.5 534 Z " /><path fill="rgb(226,122,0)" stroke="rgb(226,122,0)" stroke-width="1" opacity="1" d="M 215.5 537 Q 217.8 536.3 217 538.5 L 215.5 537 Z " /><path fill="rgb(226,122,0)" stroke="rgb(226,122,0)" stroke-width="1" opacity="1" d="M 480.5 541 L 483 542.5 L 481.5 542 L 480.5 541 Z " /><path fill="rgb(226,122,0)" stroke="rgb(226,122,0)" stroke-width="1" opacity="1" d="M 229.5 543 L 232 543.5 L 229.5 544 L 229.5 543 Z " /><path fill="rgb(226,122,0)" stroke="rgb(226,122,0)" stroke-width="1" opacity="1" d="M 470.5 545 L 473 546.5 L 471.5 546 L 470.5 545 Z " /><path fill="rgb(226,122,0)" stroke="rgb(226,122,0)" stroke-width="1" opacity="1" d="M 467.5 546 L 470 547.5 L 468.5 547 L 467.5 546 Z " /><path fill="rgb(226,122,0)" stroke="rgb(226,122,0)" stroke-width="1" opacity="1" d="M 252.5 550 L 255 550.5 L 252.5 551 L 252.5 550 Z " /><path fill="rgb(226,122,0)" stroke="rgb(226,122,0)" stroke-width="1" opacity="1" d="M 256.5 551 L 267 553.5 L 263.5 554 L 256.5 552 L 256.5 551 Z " /><path fill="rgb(226,122,0)" stroke="rgb(226,122,0)" stroke-width="1" opacity="1" d="M 268.5 554 L 280 556.5 L 276.5 557 L 268.5 555 L 268.5 554 Z " /><path fill="rgb(226,122,0)" stroke="rgb(226,122,0)" stroke-width="1" opacity="1" d="M 287.5 554 L 290 554.5 L 287.5 555 L 287.5 554 Z " /><path fill="rgb(226,122,0)" stroke="rgb(226,122,0)" stroke-width="1" opacity="1" d="M 438.5 554 L 441 554.5 L 438.5 555 L 438.5 554 Z " /><path fill="rgb(226,122,0)" stroke="rgb(226,122,0)" stroke-width="1" opacity="1" d="M 293.5 555 L 296 555.5 L 293.5 556 L 293.5 555 Z " /><path fill="rgb(226,122,0)" stroke="rgb(226,122,0)" stroke-width="1" opacity="1" d="M 434.5 555 L 437 555.5 L 434.5 556 L 434.5 555 Z " /><path fill="rgb(226,122,0)" stroke="rgb(226,122,0)" stroke-width="1" opacity="1" d="M 282.5 556 L 283.5 558 L 281 557.5 L 282.5 556 Z " /><path fill="rgb(226,122,0)" stroke="rgb(226,122,0)" stroke-width="1" opacity="1" d="M 299.5 556 L 303 556.5 L 299.5 557 L 299.5 556 Z " /><path fill="rgb(226,122,0)" stroke="rgb(226,122,0)" stroke-width="1" opacity="1" d="M 429.5 556 L 432 556.5 L 429.5 557 L 429.5 556 Z " /><path fill="rgb(226,122,0)" stroke="rgb(226,122,0)" stroke-width="1" opacity="1" d="M 288.5 557 L 289.5 559 L 288.5 557 Z " /><path fill="rgb(226,122,0)" stroke="rgb(226,122,0)" stroke-width="1" opacity="1" d="M 306.5 557 L 310 557.5 L 306.5 558 L 306.5 557 Z " /><path fill="rgb(226,122,0)" stroke="rgb(226,122,0)" stroke-width="1" opacity="1" d="M 423.5 557 L 427 557.5 L 423.5 558 L 423.5 557 Z " /><path fill="rgb(226,122,0)" stroke="rgb(226,122,0)" stroke-width="1" opacity="1" d="M 315.5 558 L 319 558.5 L 315.5 559 L 315.5 558 Z " /><path fill="rgb(226,122,0)" stroke="rgb(226,122,0)" stroke-width="1" opacity="1" d="M 417.5 558 L 420 558.5 L 417.5 559 L 417.5 558 Z " /><path fill="rgb(226,122,0)" stroke="rgb(226,122,0)" stroke-width="1" opacity="1" d="M 301.5 559 L 302.5 561 L 301.5 559 Z " /><path fill="rgb(226,122,0)" stroke="rgb(226,122,0)" stroke-width="1" opacity="1" d="M 324.5 559 L 330 559.5 L 324.5 560 L 324.5 559 Z " /><path fill="rgb(226,122,0)" stroke="rgb(226,122,0)" stroke-width="1" opacity="1" d="M 409.5 559 L 413 559.5 L 409.5 560 L 409.5 559 Z " /><path fill="rgb(226,122,0)" stroke="rgb(226,122,0)" stroke-width="1" opacity="1" d="M 337.5 560 L 345 560.5 L 337.5 561 L 337.5 560 Z " /><path fill="rgb(226,122,0)" stroke="rgb(226,122,0)" stroke-width="1" opacity="1" d="M 398.5 560 L 404 560.5 L 398.5 561 L 398.5 560 Z " /><path fill="rgb(226,122,0)" stroke="rgb(226,122,0)" stroke-width="1" opacity="1" d="M 358.5 561 L 389 561.5 L 358.5 562 L 358.5 561 Z " /><path fill="rgb(226,122,0)" stroke="rgb(226,122,0)" stroke-width="1" opacity="1" d="M 429.5 561 L 433 561.5 L 429.5 562 L 429.5 561 Z " /><path fill="rgb(226,122,0)" stroke="rgb(226,122,0)" stroke-width="1" opacity="1" d="M 339.5 563 L 340 565 L 338 564.5 L 339.5 563 Z " /><path fill="rgb(226,122,0)" stroke="rgb(226,122,0)" stroke-width="1" opacity="1" d="M 356.5 565 L 364 565.5 L 356.5 566 L 356.5 565 Z " /><path fill="rgb(226,122,0)" stroke="rgb(226,122,0)" stroke-width="1" opacity="1" d="M 388.5 565 L 391 565.5 L 388.5 566 L 388.5 565 Z " /><path fill="rgb(235,235,0)" stroke="rgb(235,235,0)" stroke-width="1" opacity="1" d="M 324.5 55 L 353 55.5 L 324.5 56 L 324.5 55 Z " /><path fill="rgb(235,235,0)" stroke="rgb(235,235,0)" stroke-width="1" opacity="1" d="M 304.5 56 L 316 56.5 L 304.5 57 L 304.5 56 Z " /><path fill="rgb(235,235,0)" stroke="rgb(235,235,0)" stroke-width="1" opacity="1" d="M 358.5 56 L 366 56.5 L 358.5 57 L 358.5 56 Z " /><path fill="rgb(235,235,0)" stroke="rgb(235,235,0)" stroke-width="1" opacity="1" d="M 293.5 57 L 300 57.5 L 293.5 58 L 293.5 57 Z " /><path fill="rgb(235,235,0)" stroke="rgb(235,235,0)" stroke-width="1" opacity="1" d="M 368.5 57 L 374 57.5 L 368.5 58 L 368.5 57 Z " /><path fill="rgb(235,235,0)" stroke="rgb(235,235,0)" stroke-width="1" opacity="1" d="M 283.5 58 L 290 58.5 L 283.5 59 L 283.5 58 Z " /><path fill="rgb(235,235,0)" stroke="rgb(235,235,0)" stroke-width="1" opacity="1" d="M 376.5 58 L 380 58.5 L 376.5 59 L 376.5 58 Z " /><path fill="rgb(235,235,0)" stroke="rgb(235,235,0)" stroke-width="1" opacity="1" d="M 276.5 59 L 281 59.5 L 276.5 60 L 276.5 59 Z " /><path fill="rgb(235,235,0)" stroke="rgb(235,235,0)" stroke-width="1" opacity="1" d="M 382.5 59 L 385 59.5 L 382.5 60 L 382.5 59 Z " /><path fill="rgb(235,235,0)" stroke="rgb(235,235,0)" stroke-width="1" opacity="1" d="M 269.5 60 L 273 60.5 L 269.5 61 L 269.5 60 Z " /><path fill="rgb(235,235,0)" stroke="rgb(235,235,0)" stroke-width="1" opacity="1" d="M 387.5 60 L 390 60.5 L 387.5 61 L 387.5 60 Z " /><path fill="rgb(235,235,0)" stroke="rgb(235,235,0)" stroke-width="1" opacity="1" d="M 263.5 61 L 267 61.5 L 263.5 62 L 263.5 61 Z " /><path fill="rgb(235,235,0)" stroke="rgb(235,235,0)" stroke-width="1" opacity="1" d="M 257.5 62 L 261 62.5 L 257.5 63 L 257.5 62 Z " /><path fill="rgb(235,235,0)" stroke="rgb(235,235,0)" stroke-width="1" opacity="1" d="M 252.5 63 L 256 63.5 L 252.5 64 L 252.5 63 Z " /><path fill="rgb(235,235,0)" stroke="rgb(235,235,0)" stroke-width="1" opacity="1" d="M 248.5 64 L 251 64.5 L 248.5 65 L 248.5 64 Z " /><path fill="rgb(235,235,0)" stroke="rgb(235,235,0)" stroke-width="1" opacity="1" d="M 243.5 65 L 246 65.5 L 243.5 66 L 243.5 65 Z " /><path fill="rgb(235,235,0)" stroke="rgb(235,235,0)" stroke-width="1" opacity="1" d="M 239.5 66 L 242 66.5 L 239.5 67 L 239.5 66 Z " /><path fill="rgb(235,235,0)" stroke="rgb(235,235,0)" stroke-width="1" opacity="1" d="M 235.5 67 L 238 67.5 L 235.5 68 L 235.5 67 Z " /><path fill="rgb(235,235,0)" stroke="rgb(235,235,0)" stroke-width="1" opacity="1" d="M 231.5 68 L 234 68.5 L 231.5 69 L 231.5 68 Z " /><path fill="rgb(235,235,0)" stroke="rgb(235,235,0)" stroke-width="1" opacity="1" d="M 224.5 70 L 227 70.5 L 221.5 72 L 221.5 71 L 224.5 70 Z " /><path fill="rgb(235,235,0)" stroke="rgb(235,235,0)" stroke-width="1" opacity="1" d="M 425.5 72 L 429 73.5 L 427.5 74 L 425.5 72 Z " /><path fill="rgb(235,235,0)" stroke="rgb(235,235,0)" stroke-width="1" opacity="1" d="M 212.5 74 L 214 74.5 L 210.5 76 L 210.5 75 L 212.5 74 Z " /><path fill="rgb(235,235,0)" stroke="rgb(235,235,0)" stroke-width="1" opacity="1" d="M 204.5 77 L 206 77.5 L 202.5 79 L 202.5 78 L 204.5 77 Z " /><path fill="rgb(235,235,0)" stroke="rgb(235,235,0)" stroke-width="1" opacity="1" d="M 199.5 79 L 201 79.5 L 197.5 81 L 197.5 80 L 199.5 79 Z " /><path fill="rgb(235,235,0)" stroke="rgb(235,235,0)" stroke-width="1" opacity="1" d="M 442.5 80 L 443.5 82 L 442.5 80 Z " /><path fill="rgb(235,235,0)" stroke="rgb(235,235,0)" stroke-width="1" opacity="1" d="M 192.5 82 L 194 82.5 L 179.5 90 L 180.5 88 L 192.5 82 Z " /><path fill="rgb(235,235,0)" stroke="rgb(235,235,0)" stroke-width="1" opacity="1" d="M 447.5 83 L 451 85.5 L 449.5 85 L 447.5 83 Z " /><path fill="rgb(235,235,0)" stroke="rgb(235,235,0)" stroke-width="1" opacity="1" d="M 452.5 86 L 453.5 88 L 452.5 86 Z " /><path fill="rgb(235,235,0)" stroke="rgb(235,235,0)" stroke-width="1" opacity="1" d="M 455.5 88 L 456.5 90 L 455.5 88 Z " /><path fill="rgb(235,235,0)" stroke="rgb(235,235,0)" stroke-width="1" opacity="1" d="M 458.5 90 L 459.5 92 L 458.5 90 Z " /><path fill="rgb(235,235,0)" stroke="rgb(235,235,0)" stroke-width="1" opacity="1" d="M 175.5 91 L 174.5 93 L 172.5 94 L 173.5 92 L 175.5 91 Z " /><path fill="rgb(235,235,0)" stroke="rgb(235,235,0)" stroke-width="1" opacity="1" d="M 461.5 92 L 463.5 95 L 461.5 92 Z " /><path fill="rgb(235,235,0)" stroke="rgb(235,235,0)" stroke-width="1" opacity="1" d="M 170.5 94 L 169.5 96 L 167.5 97 L 168.5 95 L 170.5 94 Z " /><path fill="rgb(235,235,0)" stroke="rgb(235,235,0)" stroke-width="1" opacity="1" d="M 465.5 95 L 467.5 98 L 465.5 95 Z " /><path fill="rgb(235,235,0)" stroke="rgb(235,235,0)" stroke-width="1" opacity="1" d="M 165.5 97 L 164.5 99 L 161.5 101 L 163.5 98 L 165.5 97 Z " /><path fill="rgb(235,235,0)" stroke="rgb(235,235,0)" stroke-width="1" opacity="1" d="M 469.5 98 L 473.5 103 L 469.5 98 Z " /><path fill="rgb(235,235,0)" stroke="rgb(235,235,0)" stroke-width="1" opacity="1" d="M 159.5 101 L 158.5 103 L 159.5 101 Z " /><path fill="rgb(235,235,0)" stroke="rgb(235,235,0)" stroke-width="1" opacity="1" d="M 156.5 103 L 154.5 106 L 156.5 103 Z " /><path fill="rgb(235,235,0)" stroke="rgb(235,235,0)" stroke-width="1" opacity="1" d="M 475.5 103 L 483.5 112 L 475.5 103 Z " /><path fill="rgb(235,235,0)" stroke="rgb(235,235,0)" stroke-width="1" opacity="1" d="M 152.5 106 L 148.5 111 L 141.5 117 L 147.5 110 L 152.5 106 Z " /><path fill="rgb(235,235,0)" stroke="rgb(235,235,0)" stroke-width="1" opacity="1" d="M 138.5 118 L 134.5 123 L 138.5 118 Z " /><path fill="rgb(235,235,0)" stroke="rgb(235,235,0)" stroke-width="1" opacity="1" d="M 490.5 118 L 497.5 126 L 490.5 118 Z " /><path fill="rgb(235,235,0)" stroke="rgb(235,235,0)" stroke-width="1" opacity="1" d="M 135.5 124 L 136.5 126 L 135.5 124 Z " /><path fill="rgb(235,235,0)" stroke="rgb(235,235,0)" stroke-width="1" opacity="1" d="M 139.5 127 L 142.5 131 L 139.5 127 Z " /><path fill="rgb(235,235,0)" stroke="rgb(235,235,0)" stroke-width="1" opacity="1" d="M 499.5 128 L 502.5 132 L 499.5 128 Z " /><path fill="rgb(235,235,0)" stroke="rgb(235,235,0)" stroke-width="1" opacity="1" d="M 504.5 134 L 506.5 137 L 504.5 134 Z " /><path fill="rgb(235,235,0)" stroke="rgb(235,235,0)" stroke-width="1" opacity="1" d="M 150.5 138 L 155.5 144 L 150.5 138 Z " /><path fill="rgb(235,235,0)" stroke="rgb(235,235,0)" stroke-width="1" opacity="1" d="M 508.5 139 L 509.5 141 L 508.5 139 Z " /><path fill="rgb(235,235,0)" stroke="rgb(235,235,0)" stroke-width="1" opacity="1" d="M 510.5 142 L 512.5 145 L 510.5 142 Z " /><path fill="rgb(235,235,0)" stroke="rgb(235,235,0)" stroke-width="1" opacity="1" d="M 274.5 143 L 271.5 147 L 274.5 143 Z " /><path fill="rgb(235,235,0)" stroke="rgb(235,235,0)" stroke-width="1" opacity="1" d="M 289.5 143 L 292.5 147 L 289.5 143 Z " /><path fill="rgb(235,235,0)" stroke="rgb(235,235,0)" stroke-width="1" opacity="1" d="M 157.5 146 L 159.5 149 L 157.5 146 Z " /><path fill="rgb(235,235,0)" stroke="rgb(235,235,0)" stroke-width="1" opacity="1" d="M 513.5 146 L 514.5 148 L 513.5 146 Z " /><path fill="rgb(235,235,0)" stroke="rgb(235,235,0)" stroke-width="1" opacity="1" d="M 293.5 148 L 294.5 150 L 293.5 148 Z " /><path fill="rgb(235,235,0)" stroke="rgb(235,235,0)" stroke-width="1" opacity="1" d="M 515.5 149 L 517.5 152 L 515.5 149 Z " /><path fill="rgb(235,235,0)" stroke="rgb(235,235,0)" stroke-width="1" opacity="1" d="M 160.5 150 L 162.5 153 L 160.5 150 Z " /><path fill="rgb(235,235,0)" stroke="rgb(235,235,0)" stroke-width="1" opacity="1" d="M 518.5 153 L 519.5 155 L 518.5 153 Z " /><path fill="rgb(235,235,0)" stroke="rgb(235,235,0)" stroke-width="1" opacity="1" d="M 163.5 154 L 164.5 156 L 163.5 154 Z " /><path fill="rgb(235,235,0)" stroke="rgb(235,235,0)" stroke-width="1" opacity="1" d="M 265.5 155 L 264.5 157 L 265.5 155 Z " /><path fill="rgb(235,235,0)" stroke="rgb(235,235,0)" stroke-width="1" opacity="1" d="M 520.5 156 L 523 159.5 L 521 158.5 L 520.5 156 Z " /><path fill="rgb(235,235,0)" stroke="rgb(235,235,0)" stroke-width="1" opacity="1" d="M 166.5 158 L 167.5 160 L 166.5 158 Z " /><path fill="rgb(235,235,0)" stroke="rgb(235,235,0)" stroke-width="1" opacity="1" d="M 298.5 159 L 299 161.5 L 298 161.5 L 298.5 159 Z " /><path fill="rgb(235,235,0)" stroke="rgb(235,235,0)" stroke-width="1" opacity="1" d="M 523.5 161 L 524.5 163 L 523.5 161 Z " /><path fill="rgb(235,235,0)" stroke="rgb(235,235,0)" stroke-width="1" opacity="1" d="M 169.5 163 L 170.5 165 L 169.5 163 Z " /><path fill="rgb(235,235,0)" stroke="rgb(235,235,0)" stroke-width="1" opacity="1" d="M 299.5 164 L 300 174.5 L 299 174.5 L 299.5 164 Z " /><path fill="rgb(235,235,0)" stroke="rgb(235,235,0)" stroke-width="1" opacity="1" d="M 171.5 166 L 172.5 168 L 171.5 166 Z " /><path fill="rgb(235,235,0)" stroke="rgb(235,235,0)" stroke-width="1" opacity="1" d="M 526.5 166 L 527.5 168 L 526.5 166 Z " /><path fill="rgb(235,235,0)" stroke="rgb(235,235,0)" stroke-width="1" opacity="1" d="M 174.5 171 L 177 174.5 L 175 173.5 L 174.5 171 Z " /><path fill="rgb(235,235,0)" stroke="rgb(235,235,0)" stroke-width="1" opacity="1" d="M 257.5 173 L 258 179.5 L 257 179.5 L 257.5 173 Z " /><path fill="rgb(235,235,0)" stroke="rgb(235,235,0)" stroke-width="1" opacity="1" d="M 530.5 173 L 531.5 175 L 530.5 173 Z " /><path fill="rgb(235,235,0)" stroke="rgb(235,235,0)" stroke-width="1" opacity="1" d="M 298.5 177 L 299 179.5 L 298 179.5 L 298.5 177 Z " /><path fill="rgb(235,235,0)" stroke="rgb(235,235,0)" stroke-width="1" opacity="1" d="M 257.5 181 L 258 186.5 L 257 186.5 L 257.5 181 Z " /><path fill="rgb(235,235,0)" stroke="rgb(235,235,0)" stroke-width="1" opacity="1" d="M 183.5 188 L 185 191.5 L 184 191.5 L 183.5 188 Z " /><path fill="rgb(235,235,0)" stroke="rgb(235,235,0)" stroke-width="1" opacity="1" d="M 258.5 189 L 259 191.5 L 258 191.5 L 258.5 189 Z " /><path fill="rgb(235,235,0)" stroke="rgb(235,235,0)" stroke-width="1" opacity="1" d="M 293.5 191 L 292.5 193 L 293.5 191 Z " /><path fill="rgb(235,235,0)" stroke="rgb(235,235,0)" stroke-width="1" opacity="1" d="M 290.5 195 L 289.5 197 L 290.5 195 Z " /><path fill="rgb(235,235,0)" stroke="rgb(235,235,0)" stroke-width="1" opacity="1" d="M 288.5 198 L 287.5 200 L 288.5 198 Z " /><path fill="rgb(235,235,0)" stroke="rgb(235,235,0)" stroke-width="1" opacity="1" d="M 543.5 198 L 545 201.5 L 544 201.5 L 543.5 198 Z " /><path fill="rgb(235,235,0)" stroke="rgb(235,235,0)" stroke-width="1" opacity="1" d="M 262.5 200 L 263.5 202 L 262.5 200 Z " /><path fill="rgb(235,235,0)" stroke="rgb(235,235,0)" stroke-width="1" opacity="1" d="M 286.5 201 L 281.5 207 Q 278.8 209.8 272.5 209 L 272.5 208 L 277.5 208 L 286.5 201 Z " /><path fill="rgb(235,235,0)" stroke="rgb(235,235,0)" stroke-width="1" opacity="1" d="M 265.5 204 L 266.5 206 L 265.5 204 Z " /><path fill="rgb(235,235,0)" stroke="rgb(235,235,0)" stroke-width="1" opacity="1" d="M 268.5 206 L 271 207.5 L 269.5 208 L 268.5 206 Z " /><path fill="rgb(235,235,0)" stroke="rgb(235,235,0)" stroke-width="1" opacity="1" d="M 191.5 209 L 192 211.5 L 191 211.5 L 191.5 209 Z " /><path fill="rgb(235,235,0)" stroke="rgb(235,235,0)" stroke-width="1" opacity="1" d="M 549.5 212 L 551 215.5 L 550 215.5 L 549.5 212 Z " /><path fill="rgb(235,235,0)" stroke="rgb(235,235,0)" stroke-width="1" opacity="1" d="M 192.5 213 L 193 215.5 L 192 215.5 L 192.5 213 Z " /><path fill="rgb(235,235,0)" stroke="rgb(235,235,0)" stroke-width="1" opacity="1" d="M 193.5 217 L 194 219.5 L 193 219.5 L 193.5 217 Z " /><path fill="rgb(235,235,0)" stroke="rgb(235,235,0)" stroke-width="1" opacity="1" d="M 551.5 217 L 553 220.5 L 552 220.5 L 551.5 217 Z " /><path fill="rgb(235,235,0)" stroke="rgb(235,235,0)" stroke-width="1" opacity="1" d="M 194.5 222 L 195 225.5 L 194 225.5 L 194.5 222 Z " /><path fill="rgb(235,235,0)" stroke="rgb(235,235,0)" stroke-width="1" opacity="1" d="M 195.5 229 L 196 243.5 L 195 243.5 L 195.5 229 Z " /><path fill="rgb(235,235,0)" stroke="rgb(235,235,0)" stroke-width="1" opacity="1" d="M 564.5 254 L 565 256.5 L 564 256.5 L 564.5 254 Z " /><path fill="rgb(235,235,0)" stroke="rgb(235,235,0)" stroke-width="1" opacity="1" d="M 189.5 258 L 188.5 260 L 189.5 258 Z " /><path fill="rgb(235,235,0)" stroke="rgb(235,235,0)" stroke-width="1" opacity="1" d="M 566.5 261 L 567 263.5 L 566 263.5 L 566.5 261 Z " /><path fill="rgb(235,235,0)" stroke="rgb(235,235,0)" stroke-width="1" opacity="1" d="M 184.5 265 L 183.5 267 L 184.5 265 Z " /><path fill="rgb(235,235,0)" stroke="rgb(235,235,0)" stroke-width="1" opacity="1" d="M 182.5 268 L 180.5 271 L 174.5 274 L 174.5 273 L 182.5 268 Z " /><path fill="rgb(235,235,0)" stroke="rgb(235,235,0)" stroke-width="1" opacity="1" d="M 568.5 268 L 569 270.5 L 568 270.5 L 568.5 268 Z " /><path fill="rgb(235,235,0)" stroke="rgb(235,235,0)" stroke-width="1" opacity="1" d="M 167.5 275 L 170 275.5 L 167.5 276 L 167.5 275 Z " /><path fill="rgb(235,235,0)" stroke="rgb(235,235,0)" stroke-width="1" opacity="1" d="M 156.5 276 L 165 276.5 L 156.5 277 L 156.5 276 Z " /><path fill="rgb(235,235,0)" stroke="rgb(235,235,0)" stroke-width="1" opacity="1" d="M 154.5 277 L 153.5 279 L 154.5 277 Z " /><path fill="rgb(235,235,0)" stroke="rgb(235,235,0)" stroke-width="1" opacity="1" d="M 151.5 279 L 146.5 285 L 140.5 290 L 145.5 284 L 151.5 279 Z " /><path fill="rgb(235,235,0)" stroke="rgb(235,235,0)" stroke-width="1" opacity="1" d="M 571.5 280 L 572 282.5 L 571 282.5 L 571.5 280 Z " /><path fill="rgb(235,235,0)" stroke="rgb(235,235,0)" stroke-width="1" opacity="1" d="M 572.5 284 L 573 286.5 L 572 286.5 L 572.5 284 Z " /><path fill="rgb(235,235,0)" stroke="rgb(235,235,0)" stroke-width="1" opacity="1" d="M 573.5 288 L 574 290.5 L 573 290.5 L 573.5 288 Z " /><path fill="rgb(235,235,0)" stroke="rgb(235,235,0)" stroke-width="1" opacity="1" d="M 138.5 290 L 133.5 296 L 138.5 290 Z " /><path fill="rgb(235,235,0)" stroke="rgb(235,235,0)" stroke-width="1" opacity="1" d="M 574.5 292 L 575 294.5 L 574 294.5 L 574.5 292 Z " /><path fill="rgb(235,235,0)" stroke="rgb(235,235,0)" stroke-width="1" opacity="1" d="M 131.5 296 L 127.5 301 L 131.5 296 Z " /><path fill="rgb(235,235,0)" stroke="rgb(235,235,0)" stroke-width="1" opacity="1" d="M 575.5 297 L 576 299.5 L 575 299.5 L 575.5 297 Z " /><path fill="rgb(235,235,0)" stroke="rgb(235,235,0)" stroke-width="1" opacity="1" d="M 125.5 301 L 120.5 307 L 114.5 312 L 119.5 306 L 125.5 301 Z " /><path fill="rgb(235,235,0)" stroke="rgb(235,235,0)" stroke-width="1" opacity="1" d="M 576.5 301 L 577 303.5 L 576 303.5 L 576.5 301 Z " /><path fill="rgb(235,235,0)" stroke="rgb(235,235,0)" stroke-width="1" opacity="1" d="M 577.5 306 L 578 308.5 L 577 308.5 L 577.5 306 Z " /><path fill="rgb(235,235,0)" stroke="rgb(235,235,0)" stroke-width="1" opacity="1" d="M 578.5 311 L 579 313.5 L 578 313.5 L 578.5 311 Z " /><path fill="rgb(235,235,0)" stroke="rgb(235,235,0)" stroke-width="1" opacity="1" d="M 112.5 312 L 107.5 318 L 112.5 312 Z " /><path fill="rgb(235,235,0)" stroke="rgb(235,235,0)" stroke-width="1" opacity="1" d="M 579.5 316 L 580 318.5 L 579 318.5 L 579.5 316 Z " /><path fill="rgb(235,235,0)" stroke="rgb(235,235,0)" stroke-width="1" opacity="1" d="M 105.5 318 L 101.5 323 L 105.5 318 Z " /><path fill="rgb(235,235,0)" stroke="rgb(235,235,0)" stroke-width="1" opacity="1" d="M 580.5 321 L 581 324.5 L 580 324.5 L 580.5 321 Z " /><path fill="rgb(235,235,0)" stroke="rgb(235,235,0)" stroke-width="1" opacity="1" d="M 99.5 323 L 93.5 330 L 81.5 340 L 86.5 334 L 99.5 323 Z " /><path fill="rgb(235,235,0)" stroke="rgb(235,235,0)" stroke-width="1" opacity="1" d="M 581.5 326 L 582 328.5 L 581 328.5 L 581.5 326 Z " /><path fill="rgb(235,235,0)" stroke="rgb(235,235,0)" stroke-width="1" opacity="1" d="M 582.5 330 L 585 335.5 L 583 334.5 L 582.5 330 Z " /><path fill="rgb(235,235,0)" stroke="rgb(235,235,0)" stroke-width="1" opacity="1" d="M 588.5 339 L 589.5 341 L 588.5 339 Z " /><path fill="rgb(235,235,0)" stroke="rgb(235,235,0)" stroke-width="1" opacity="1" d="M 79.5 340 L 77 343.5 L 76.5 350 L 76 343.5 L 79.5 340 Z " /><path fill="rgb(235,235,0)" stroke="rgb(235,235,0)" stroke-width="1" opacity="1" d="M 598.5 344 L 602 344.5 L 598.5 345 L 598.5 344 Z " /><path fill="rgb(235,235,0)" stroke="rgb(235,235,0)" stroke-width="1" opacity="1" d="M 655.5 344 L 663 344.5 L 655.5 345 L 655.5 344 Z " /><path fill="rgb(235,235,0)" stroke="rgb(235,235,0)" stroke-width="1" opacity="1" d="M 604.5 345 L 610 345.5 L 604.5 346 L 604.5 345 Z " /><path fill="rgb(235,235,0)" stroke="rgb(235,235,0)" stroke-width="1" opacity="1" d="M 634.5 345 L 648 345.5 L 634.5 346 L 634.5 345 Z " /><path fill="rgb(235,235,0)" stroke="rgb(235,235,0)" stroke-width="1" opacity="1" d="M 667.5 345 L 670 345.5 L 667.5 346 L 667.5 345 Z " /><path fill="rgb(235,235,0)" stroke="rgb(235,235,0)" stroke-width="1" opacity="1" d="M 614.5 346 L 626 346.5 L 614.5 347 L 614.5 346 Z " /><path fill="rgb(235,235,0)" stroke="rgb(235,235,0)" stroke-width="1" opacity="1" d="M 77.5 353 L 78 357.5 L 77 357.5 L 77.5 353 Z " /><path fill="rgb(235,235,0)" stroke="rgb(235,235,0)" stroke-width="1" opacity="1" d="M 78.5 360 L 79 364.5 L 78 364.5 L 78.5 360 Z " /><path fill="rgb(235,235,0)" stroke="rgb(235,235,0)" stroke-width="1" opacity="1" d="M 79.5 367 L 80 369.5 L 79 369.5 L 79.5 367 Z " /><path fill="rgb(235,235,0)" stroke="rgb(235,235,0)" stroke-width="1" opacity="1" d="M 664.5 368 L 663.5 370 L 664.5 368 Z " /><path fill="rgb(235,235,0)" stroke="rgb(235,235,0)" stroke-width="1" opacity="1" d="M 80.5 372 L 81 374.5 L 80 374.5 L 80.5 372 Z " /><path fill="rgb(235,235,0)" stroke="rgb(235,235,0)" stroke-width="1" opacity="1" d="M 81.5 377 L 82 379.5 L 81 379.5 L 81.5 377 Z " /><path fill="rgb(235,235,0)" stroke="rgb(235,235,0)" stroke-width="1" opacity="1" d="M 659.5 377 L 658.5 379 L 659.5 377 Z " /><path fill="rgb(235,235,0)" stroke="rgb(235,235,0)" stroke-width="1" opacity="1" d="M 82.5 381 L 83 383.5 L 82 383.5 L 82.5 381 Z " /><path fill="rgb(235,235,0)" stroke="rgb(235,235,0)" stroke-width="1" opacity="1" d="M 655.5 384 L 654.5 386 L 655.5 384 Z " /><path fill="rgb(235,235,0)" stroke="rgb(235,235,0)" stroke-width="1" opacity="1" d="M 83.5 385 L 84 387.5 L 83 387.5 L 83.5 385 Z " /><path fill="rgb(235,235,0)" stroke="rgb(235,235,0)" stroke-width="1" opacity="1" d="M 652.5 389 L 651.5 391 L 652.5 389 Z " /><path fill="rgb(235,235,0)" stroke="rgb(235,235,0)" stroke-width="1" opacity="1" d="M 641.5 406 L 640.5 408 L 641.5 406 Z " /><path fill="rgb(235,235,0)" stroke="rgb(235,235,0)" stroke-width="1" opacity="1" d="M 636.5 413 L 635.5 415 L 636.5 413 Z " /><path fill="rgb(235,235,0)" stroke="rgb(235,235,0)" stroke-width="1" opacity="1" d="M 94.5 418 L 96 421.5 L 95 421.5 L 94.5 418 Z " /><path fill="rgb(235,235,0)" stroke="rgb(235,235,0)" stroke-width="1" opacity="1" d="M 631.5 420 L 630.5 422 L 631.5 420 Z " /><path fill="rgb(235,235,0)" stroke="rgb(235,235,0)" stroke-width="1" opacity="1" d="M 628.5 424 L 626.5 427 L 628.5 424 Z " /><path fill="rgb(235,235,0)" stroke="rgb(235,235,0)" stroke-width="1" opacity="1" d="M 624.5 429 L 622.5 432 L 624.5 429 Z " /><path fill="rgb(235,235,0)" stroke="rgb(235,235,0)" stroke-width="1" opacity="1" d="M 620.5 434 L 617.5 438 L 620.5 434 Z " /><path fill="rgb(235,235,0)" stroke="rgb(235,235,0)" stroke-width="1" opacity="1" d="M 103.5 437 L 104.5 439 L 103.5 437 Z " /><path fill="rgb(235,235,0)" stroke="rgb(235,235,0)" stroke-width="1" opacity="1" d="M 615.5 440 L 611.5 445 L 615.5 440 Z " /><path fill="rgb(235,235,0)" stroke="rgb(235,235,0)" stroke-width="1" opacity="1" d="M 107.5 444 L 108.5 446 L 107.5 444 Z " /><path fill="rgb(235,235,0)" stroke="rgb(235,235,0)" stroke-width="1" opacity="1" d="M 109.5 447 L 110.5 449 L 109.5 447 Z " /><path fill="rgb(235,235,0)" stroke="rgb(235,235,0)" stroke-width="1" opacity="1" d="M 609.5 447 L 600.5 457 L 609.5 447 Z " /><path fill="rgb(235,235,0)" stroke="rgb(235,235,0)" stroke-width="1" opacity="1" d="M 111.5 450 L 112.5 452 L 111.5 450 Z " /><path fill="rgb(235,235,0)" stroke="rgb(235,235,0)" stroke-width="1" opacity="1" d="M 113.5 453 L 114.5 455 L 113.5 453 Z " /><path fill="rgb(235,235,0)" stroke="rgb(235,235,0)" stroke-width="1" opacity="1" d="M 115.5 456 L 116.5 458 L 115.5 456 Z " /><path fill="rgb(235,235,0)" stroke="rgb(235,235,0)" stroke-width="1" opacity="1" d="M 117.5 459 L 119.5 462 L 117.5 459 Z " /><path fill="rgb(235,235,0)" stroke="rgb(235,235,0)" stroke-width="1" opacity="1" d="M 598.5 459 L 586.5 472 L 598.5 459 Z " /><path fill="rgb(235,235,0)" stroke="rgb(235,235,0)" stroke-width="1" opacity="1" d="M 121.5 464 L 123.5 467 L 121.5 464 Z " /><path fill="rgb(235,235,0)" stroke="rgb(235,235,0)" stroke-width="1" opacity="1" d="M 125.5 469 L 130.5 475 L 125.5 469 Z " /><path fill="rgb(235,235,0)" stroke="rgb(235,235,0)" stroke-width="1" opacity="1" d="M 583.5 473 L 574.5 483 L 583.5 473 Z " /><path fill="rgb(235,235,0)" stroke="rgb(235,235,0)" stroke-width="1" opacity="1" d="M 131.5 476 L 142.5 488 L 131.5 476 Z " /><path fill="rgb(235,235,0)" stroke="rgb(235,235,0)" stroke-width="1" opacity="1" d="M 572.5 483 L 566.5 490 L 557.5 497 L 560.5 493 L 572.5 483 Z " /><path fill="rgb(235,235,0)" stroke="rgb(235,235,0)" stroke-width="1" opacity="1" d="M 147.5 491 L 150.5 495 L 147.5 491 Z " /><path fill="rgb(235,235,0)" stroke="rgb(235,235,0)" stroke-width="1" opacity="1" d="M 153.5 496 L 155.5 499 L 153.5 496 Z " /><path fill="rgb(235,235,0)" stroke="rgb(235,235,0)" stroke-width="1" opacity="1" d="M 555.5 497 L 552.5 501 L 533.5 514 L 534.5 512 L 555.5 497 Z " /><path fill="rgb(235,235,0)" stroke="rgb(235,235,0)" stroke-width="1" opacity="1" d="M 158.5 500 L 160.5 503 L 158.5 500 Z " /><path fill="rgb(235,235,0)" stroke="rgb(235,235,0)" stroke-width="1" opacity="1" d="M 162.5 503 L 163.5 505 L 162.5 503 Z " /><path fill="rgb(235,235,0)" stroke="rgb(235,235,0)" stroke-width="1" opacity="1" d="M 165.5 505 L 167.5 508 L 165.5 505 Z " /><path fill="rgb(235,235,0)" stroke="rgb(235,235,0)" stroke-width="1" opacity="1" d="M 169.5 508 L 170.5 510 L 169.5 508 Z " /><path fill="rgb(235,235,0)" stroke="rgb(235,235,0)" stroke-width="1" opacity="1" d="M 172.5 510 L 173.5 512 L 172.5 510 Z " /><path fill="rgb(235,235,0)" stroke="rgb(235,235,0)" stroke-width="1" opacity="1" d="M 177.5 513 L 178.5 515 L 177.5 513 Z " /><path fill="rgb(235,235,0)" stroke="rgb(235,235,0)" stroke-width="1" opacity="1" d="M 531.5 514 L 530.5 516 L 531.5 514 Z " /><path fill="rgb(235,235,0)" stroke="rgb(235,235,0)" stroke-width="1" opacity="1" d="M 180.5 515 L 184 517.5 L 182.5 517 L 180.5 515 Z " /><path fill="rgb(235,235,0)" stroke="rgb(235,235,0)" stroke-width="1" opacity="1" d="M 528.5 516 L 527.5 518 L 525.5 519 L 526.5 517 L 528.5 516 Z " /><path fill="rgb(235,235,0)" stroke="rgb(235,235,0)" stroke-width="1" opacity="1" d="M 187.5 519 L 191 521.5 L 189.5 521 L 187.5 519 Z " /><path fill="rgb(235,235,0)" stroke="rgb(235,235,0)" stroke-width="1" opacity="1" d="M 523.5 519 L 522.5 521 L 520.5 522 L 521.5 520 L 523.5 519 Z " /><path fill="rgb(235,235,0)" stroke="rgb(235,235,0)" stroke-width="1" opacity="1" d="M 518.5 522 L 517.5 524 L 513.5 526 L 514.5 524 L 518.5 522 Z " /><path fill="rgb(235,235,0)" stroke="rgb(235,235,0)" stroke-width="1" opacity="1" d="M 511.5 526 L 510.5 528 L 497.5 534 L 497.5 533 L 511.5 526 Z " /><path fill="rgb(235,235,0)" stroke="rgb(235,235,0)" stroke-width="1" opacity="1" d="M 204.5 528 L 210 530.5 L 208.5 531 L 204.5 529 L 204.5 528 Z " /><path fill="rgb(235,235,0)" stroke="rgb(235,235,0)" stroke-width="1" opacity="1" d="M 213.5 532 L 217 533.5 L 215.5 534 L 213.5 532 Z " /><path fill="rgb(235,235,0)" stroke="rgb(235,235,0)" stroke-width="1" opacity="1" d="M 490.5 536 L 492 536.5 L 486.5 539 L 486.5 538 L 490.5 536 Z " /><path fill="rgb(235,235,0)" stroke="rgb(235,235,0)" stroke-width="1" opacity="1" d="M 483.5 539 L 485 539.5 L 481.5 541 L 481.5 540 L 483.5 539 Z " /><path fill="rgb(235,235,0)" stroke="rgb(235,235,0)" stroke-width="1" opacity="1" d="M 478.5 541 L 480 541.5 L 476.5 543 L 476.5 542 L 478.5 541 Z " /><path fill="rgb(235,235,0)" stroke="rgb(235,235,0)" stroke-width="1" opacity="1" d="M 243.5 543 L 246 543.5 L 243.5 544 L 243.5 543 Z " /><path fill="rgb(235,235,0)" stroke="rgb(235,235,0)" stroke-width="1" opacity="1" d="M 473.5 543 L 475 543.5 L 468.5 546 L 468.5 545 L 473.5 543 Z " /><path fill="rgb(235,235,0)" stroke="rgb(235,235,0)" stroke-width="1" opacity="1" d="M 250.5 545 L 253 545.5 L 250.5 546 L 250.5 545 Z " /><path fill="rgb(235,235,0)" stroke="rgb(235,235,0)" stroke-width="1" opacity="1" d="M 257.5 547 L 260 547.5 L 257.5 548 L 257.5 547 Z " /><path fill="rgb(235,235,0)" stroke="rgb(235,235,0)" stroke-width="1" opacity="1" d="M 261.5 548 L 264 548.5 L 261.5 549 L 261.5 548 Z " /><path fill="rgb(235,235,0)" stroke="rgb(235,235,0)" stroke-width="1" opacity="1" d="M 458.5 548 L 461 548.5 L 455.5 550 L 455.5 549 L 458.5 548 Z " /><path fill="rgb(235,235,0)" stroke="rgb(235,235,0)" stroke-width="1" opacity="1" d="M 265.5 549 L 268 549.5 L 265.5 550 L 265.5 549 Z " /><path fill="rgb(235,235,0)" stroke="rgb(235,235,0)" stroke-width="1" opacity="1" d="M 270.5 550 L 273 550.5 L 270.5 551 L 270.5 550 Z " /><path fill="rgb(235,235,0)" stroke="rgb(235,235,0)" stroke-width="1" opacity="1" d="M 451.5 550 L 454 550.5 L 448.5 552 L 448.5 551 L 451.5 550 Z " /><path fill="rgb(235,235,0)" stroke="rgb(235,235,0)" stroke-width="1" opacity="1" d="M 274.5 551 L 278 551.5 L 274.5 552 L 274.5 551 Z " /><path fill="rgb(235,235,0)" stroke="rgb(235,235,0)" stroke-width="1" opacity="1" d="M 279.5 552 L 283 552.5 L 279.5 553 L 279.5 552 Z " /><path fill="rgb(235,235,0)" stroke="rgb(235,235,0)" stroke-width="1" opacity="1" d="M 444.5 552 L 447 552.5 L 444.5 553 L 444.5 552 Z " /><path fill="rgb(235,235,0)" stroke="rgb(235,235,0)" stroke-width="1" opacity="1" d="M 284.5 553 L 288 553.5 L 284.5 554 L 284.5 553 Z " /><path fill="rgb(235,235,0)" stroke="rgb(235,235,0)" stroke-width="1" opacity="1" d="M 440.5 553 L 443 553.5 L 440.5 554 L 440.5 553 Z " /><path fill="rgb(235,235,0)" stroke="rgb(235,235,0)" stroke-width="1" opacity="1" d="M 290.5 554 L 294 554.5 L 290.5 555 L 290.5 554 Z " /><path fill="rgb(235,235,0)" stroke="rgb(235,235,0)" stroke-width="1" opacity="1" d="M 435.5 554 L 438 554.5 L 435.5 555 L 435.5 554 Z " /><path fill="rgb(235,235,0)" stroke="rgb(235,235,0)" stroke-width="1" opacity="1" d="M 296.5 555 L 300 555.5 L 296.5 556 L 296.5 555 Z " /><path fill="rgb(235,235,0)" stroke="rgb(235,235,0)" stroke-width="1" opacity="1" d="M 430.5 555 L 434 555.5 L 430.5 556 L 430.5 555 Z " /><path fill="rgb(235,235,0)" stroke="rgb(235,235,0)" stroke-width="1" opacity="1" d="M 303.5 556 L 308 556.5 L 303.5 557 L 303.5 556 Z " /><path fill="rgb(235,235,0)" stroke="rgb(235,235,0)" stroke-width="1" opacity="1" d="M 425.5 556 L 429 556.5 L 425.5 557 L 425.5 556 Z " /><path fill="rgb(235,235,0)" stroke="rgb(235,235,0)" stroke-width="1" opacity="1" d="M 310.5 557 L 316 557.5 L 310.5 558 L 310.5 557 Z " /><path fill="rgb(235,235,0)" stroke="rgb(235,235,0)" stroke-width="1" opacity="1" d="M 418.5 557 L 423 557.5 L 418.5 558 L 418.5 557 Z " /><path fill="rgb(235,235,0)" stroke="rgb(235,235,0)" stroke-width="1" opacity="1" d="M 319.5 558 L 326 558.5 L 319.5 559 L 319.5 558 Z " /><path fill="rgb(235,235,0)" stroke="rgb(235,235,0)" stroke-width="1" opacity="1" d="M 411.5 558 L 417 558.5 L 411.5 559 L 411.5 558 Z " /><path fill="rgb(235,235,0)" stroke="rgb(235,235,0)" stroke-width="1" opacity="1" d="M 330.5 559 L 340 559.5 L 330.5 560 L 330.5 559 Z " /><path fill="rgb(235,235,0)" stroke="rgb(235,235,0)" stroke-width="1" opacity="1" d="M 401.5 559 L 409 559.5 L 401.5 560 L 401.5 559 Z " /><path fill="rgb(235,235,0)" stroke="rgb(235,235,0)" stroke-width="1" opacity="1" d="M 345.5 560 L 370 560.5 L 345.5 561 L 345.5 560 Z " /><path fill="rgb(235,235,0)" stroke="rgb(235,235,0)" stroke-width="1" opacity="1" d="M 378.5 560 L 398 560.5 L 378.5 561 L 378.5 560 Z " /><path fill="rgb(74,64,0)" stroke="rgb(74,64,0)" stroke-width="1" opacity="0.9764705882352941" d="M 320.5 48 L 361.5 48 L 362.5 49 L 379.5 50 L 403.5 55 L 421.5 61 Q 469.7 80.3 501 116.5 Q 530.5 150 550 193.5 Q 562 220.5 571 250.5 L 579 280.5 L 584 305.5 Q 581.5 307 585 308.5 L 588 326.5 L 593.5 333 L 607.5 338 L 629.5 339 L 630.5 338 L 670.5 337 L 676.5 339 L 679 341.5 L 679 345.5 L 677 350.5 L 668 368.5 L 640 413.5 Q 612.3 452.8 577.5 485 Q 548 512.5 511.5 533 Q 491 544.5 467.5 553 L 448.5 559 L 433.5 562 L 429.5 561 L 429.5 562 L 432 562.5 L 415.5 566 L 399.5 567 L 398.5 568 L 360.5 569 L 359.5 568 L 322.5 567 L 321.5 566 L 312.5 566 L 311.5 565 L 304.5 565 L 303.5 564 L 296.5 564 L 295.5 563 L 278.5 561 L 248.5 554 L 215.5 543 Q 158.1 520.4 121 477.5 Q 102.5 456 90 428.5 L 79 398.5 L 73 369.5 L 74 369.5 Q 73.3 371.8 75.5 371 L 75 369.5 L 73 366.5 L 72 362 Q 75.3 363.1 74 359 L 71 357.5 Q 71.9 349.2 70 345 L 44.5 366 L 43 363.5 L 43 348.5 L 42 347.5 L 42 302.5 L 43 301.5 L 43 290.5 L 44 289.5 L 44 282.5 L 47 265.5 L 51 252.5 L 57 241.5 L 57 239 L 52 236.5 Q 69.3 197.8 90 162.5 L 106 138.5 L 116.5 128 L 120.5 127 L 125.5 128 L 144.5 108 Q 184.5 71.5 247.5 58 L 249.5 59 L 249.5 57 L 270.5 53 L 283.5 52 L 284.5 51 L 303.5 50 L 304.5 49 L 319.5 49 L 320.5 48 Z M 311 51 L 311 52 L 314 52 L 311 51 Z M 328 52 L 328 53 L 334 53 L 328 52 Z M 353 52 L 353 53 L 355 53 L 353 52 Z M 285 53 L 285 54 L 288 54 L 285 53 Z M 277 54 L 277 55 L 279 55 L 277 54 Z M 269 55 L 269 56 L 271 56 L 269 55 Z M 313 55 L 312 56 L 299 56 L 298 57 L 288 57 L 287 58 L 266 60 L 223 70 L 196 80 L 178 89 L 151 107 L 146 112 L 145 111 L 133 124 L 141 129 Q 180 164 194 224 Q 195 228 193 230 L 195 230 L 194 250 L 185 265 L 175 273 L 169 275 L 154 277 L 84 337 L 76 342 L 76 352 L 75 353 L 77 353 L 76 362 L 78 361 L 82 386 L 94 421 Q 107 450 127 473 Q 164 514 220 536 L 249 546 L 288 555 L 306 557 L 307 558 L 315 558 L 316 559 L 324 559 L 325 560 L 358 561 L 359 562 L 389 562 L 390 561 L 404 561 L 405 560 L 427 558 L 460 550 L 487 540 Q 522 525 551 503 L 571 487 L 603 456 L 604 456 L 605 453 L 623 432 L 626 430 L 626 428 L 638 413 Q 637 410 640 411 L 640 409 Q 657 387 669 361 Q 668 358 671 359 L 670 358 Q 673 354 674 348 L 668 344 L 644 344 L 643 345 L 605 345 L 596 343 L 590 340 Q 584 336 582 329 Q 571 257 545 200 Q 525 155 494 121 Q 462 85 413 66 L 388 59 L 371 57 L 370 56 L 361 56 L 360 55 L 313 55 Z M 385 55 L 385 56 L 388 57 L 391 57 L 385 55 Z M 255 57 L 255 58 L 257 58 L 255 57 Z M 393 57 L 393 58 L 396 58 L 393 57 Z M 408 61 L 408 62 L 410 62 L 408 61 Z M 114 135 L 105 144 L 95 159 L 71 203 L 58 231 L 86 243 L 121 255 L 154 262 Q 174 264 184 258 L 185 255 L 185 241 L 184 240 L 183 229 L 175 205 Q 162 176 143 154 Q 134 143 123 136 L 114 135 Z M 176 183 L 176 185 L 178 184 L 176 183 Z M 182 190 L 181 192 L 181 194 Q 180 196 183 195 L 182 190 Z M 545 195 L 545 197 L 547 196 L 545 195 Z M 183 196 Q 181 199 184 198 L 183 196 Z M 185 201 L 184 203 Q 186 206 187 203 L 185 201 Z M 550 203 L 549 206 L 550 206 L 550 203 Z M 552 207 L 550 209 L 552 210 L 552 207 Z M 552 211 L 552 213 L 554 212 L 552 211 Z M 188 212 L 189 214 Q 190 211 188 212 Z M 556 217 L 554 219 L 556 219 L 556 217 Z M 557 220 L 555 222 L 557 222 L 557 220 Z M 558 222 L 556 224 L 558 224 L 557 227 L 559 227 L 560 228 L 558 222 Z M 559 229 L 560 230 L 561 231 Q 562 228 559 229 Z M 562 233 Q 560 236 563 235 L 562 233 Z M 564 239 Q 562 242 565 241 L 564 239 Z M 56 248 L 50 272 L 49 286 L 48 287 L 48 299 L 47 300 L 47 340 L 48 341 L 48 356 L 50 357 L 139 282 L 144 275 L 133 274 L 106 267 L 75 256 L 56 248 Z M 568 252 Q 566 255 569 254 L 568 252 Z M 596 338 L 597 340 Q 598 337 596 338 Z M 600 340 L 600 341 L 602 341 L 600 340 Z M 604 340 L 603 342 L 606 342 L 604 340 Z M 643 340 L 643 341 L 645 341 L 643 340 Z M 617 341 L 617 342 L 624 342 L 617 341 Z M 664 341 L 664 342 L 666 342 L 664 341 Z M 670 341 L 670 342 L 672 342 L 670 341 Z M 636 342 L 636 343 L 639 343 L 636 342 Z M 83 399 L 84 401 Q 85 398 83 399 Z M 86 406 L 87 410 L 88 408 L 86 406 Z M 87 410 L 87 414 L 89 413 Q 90 409 87 410 Z M 89 415 L 89 417 L 91 416 L 89 415 Z M 97 434 L 97 436 L 99 435 L 97 434 Z M 216 537 L 217 539 Q 218 536 216 537 Z M 230 543 L 230 544 L 232 544 L 230 543 Z M 253 550 L 253 551 L 255 551 L 253 550 Z M 257 551 L 257 552 L 259 552 L 257 551 Z M 260 552 L 260 553 L 264 554 L 267 554 L 260 552 Z M 269 554 L 269 555 L 272 555 L 269 554 Z M 273 555 L 273 556 L 277 557 L 280 557 L 273 555 Z M 283 556 L 281 558 L 284 558 L 283 556 Z M 340 563 L 338 565 L 340 565 L 340 563 Z M 357 565 L 357 566 L 364 566 L 357 565 Z M 389 565 L 389 566 L 391 566 L 389 565 Z " /><path fill="rgb(74,64,0)" stroke="rgb(74,64,0)" stroke-width="1" opacity="0.9764705882352941" d="M 279.5 142 L 285.5 142 L 291 145 L 297 155.5 L 299 165.5 L 299 174.5 L 297 183.5 L 293 191.5 L 282.5 205 L 273.5 208 Q 266.3 206.2 263 200.5 L 258 186.5 L 258 173.5 Q 259.5 164 264 157.5 L 272 146 L 279.5 142 Z M 276 149 L 274 150 L 268 156 L 265 162 L 263 171 L 264 185 L 269 196 L 273 199 L 280 202 L 280 200 L 286 198 L 292 188 L 294 177 L 293 166 L 288 155 Q 286 148 276 149 Z M 294 154 L 293 157 L 294 157 L 294 154 Z M 263 181 L 262 184 L 263 184 L 263 181 Z M 262 192 Q 262 196 264 193 L 262 192 Z M 265 194 L 263 196 L 265 196 L 265 194 Z M 273 203 L 274 205 Q 275 202 273 203 Z " /><path fill="rgb(74,64,0)" stroke="rgb(74,64,0)" stroke-width="1" opacity="0.9764705882352941" d="M 110.5 184 L 114.5 184 L 119 188.5 L 121 197.5 L 119 205.5 L 111.5 214 L 107.5 214 L 103 209.5 L 101 199.5 Q 102.6 188.6 110.5 184 Z M 111 187 L 109 188 L 104 198 Q 104 204 107 209 L 111 211 L 114 210 L 118 201 Q 118 194 115 190 L 111 187 Z " /><path fill="rgb(255,255,0)" stroke="rgb(255,255,0)" stroke-width="1" opacity="1" d="M 316.5 56 L 357.5 56 L 358.5 57 L 375.5 58 L 399.5 63 L 417.5 69 L 451.5 86 L 485 112 Q 483.9 114.7 486.5 114 Q 521.3 149.3 543 197.5 Q 555.1 223.9 564 253.5 L 575 295.5 L 582 332.5 L 589.5 341 L 598.5 345 L 613.5 346 L 614.5 347 L 625.5 347 L 626.5 346 L 666.5 345 L 673 347 L 673 350.5 L 665 367.5 L 643 404.5 Q 617 442 584.5 473 Q 542.6 513.6 485.5 539 L 461.5 548 L 424.5 557 L 418.5 557 L 410.5 559 L 401.5 559 L 400.5 560 L 378.5 560 Q 376.8 562.7 370.5 561 L 369.5 560 L 340.5 560 L 339.5 559 L 326.5 559 L 325.5 558 L 300.5 556 L 268.5 550 L 230.5 539 Q 170.1 517.9 131 475.5 Q 107.3 450.2 93 415.5 L 81 376.5 L 78 353.5 L 77 352.5 L 77 343.5 L 152.5 279 L 155.5 277 L 164.5 277 L 175.5 274 L 183 268.5 L 194 251.5 L 196 243.5 L 196 229.5 L 195 228.5 L 194 217.5 L 189 200.5 L 176 172.5 Q 161.5 146 139.5 127 L 134 123.5 Q 166.1 90.6 214.5 74 L 230.5 69 L 261.5 62 L 280.5 60 L 281.5 59 L 289.5 59 L 290.5 58 L 299.5 58 L 300.5 57 L 315.5 57 L 316.5 56 Z M 279 141 L 275 143 L 262 160 L 257 174 Q 255 195 265 205 L 273 209 Q 279 210 282 207 L 294 192 L 300 175 Q 301 156 293 147 L 286 141 L 279 141 Z " /><path fill="rgb(0,0,0)" stroke="rgb(0,0,0)" stroke-width="1" opacity="0.5490196078431373" d="M 322.5 41 L 365.5 41 L 366.5 42 L 383.5 43 L 399.5 46 L 425.5 54 Q 475 74 507 111.5 Q 538.1 147.4 558 194.5 L 575 241.5 L 586 283.5 L 592 316.5 L 597.5 326 L 611.5 331 L 652.5 331 L 653.5 330 L 674.5 330 L 683 333 Q 684.6 335.1 684 340.5 Q 642.9 427.9 576.5 490 Q 536 528.5 481.5 553 L 437.5 568 L 404.5 574 L 382 575 L 381 577.5 L 381 644.5 L 382.5 652 L 419 636 L 419 639.5 L 410.5 651 L 398 656.5 L 405.5 660 L 443 671 L 435 685 L 380.5 669 L 360 715.5 L 350.5 728 L 349 724.5 L 372 673.5 L 372 668.5 L 370.5 669 L 366.5 669 L 271.5 691 L 265 691 L 265 688.5 L 273.5 677 L 330.5 665 L 335.5 663 L 344.5 662 L 362.5 657 L 366.5 657 L 371 654.5 L 371 641.5 L 370 640.5 L 370 602.5 L 371 601.5 L 371 582.5 L 372 576 L 318.5 574 L 317.5 573 L 308.5 573 L 307.5 572 L 286.5 570 L 279.5 568 L 278 569.5 L 278 607.5 L 279 614 L 314.5 604 L 320 604 L 319 607.5 L 310.5 618 L 304 620.5 L 340 631 L 340 634.5 L 333 645 L 328.5 645 L 278.5 629 L 259 673.5 L 250 688 Q 245.5 689.8 247 684.5 L 268 638.5 L 270 631.5 Q 269.3 629.3 265.5 630 L 174.5 651 L 165 652 L 166 647.5 L 173.5 638 L 268 617 L 268 608.5 L 267 607.5 L 267 592.5 L 268 591.5 L 268 573.5 Q 270.2 572.3 269 567.5 L 264.5 565 L 248.5 562 L 222.5 554 L 181.5 536 Q 148.7 518.3 124 492.5 Q 97.7 465.3 82 427.5 L 70 388.5 L 67 365.5 L 66 364.5 L 66 355.5 L 64.5 353 L 41.5 373 L 39 373 L 38 370.5 L 38 356.5 L 37 355.5 L 37 306.5 L 38 305.5 L 38 294.5 L 39 293.5 L 41 274.5 L 46 256.5 L 51 245 Q 47.2 245.8 46 242.5 Q 63.9 202.9 85 166.5 L 104 137.5 L 115.5 124 Q 118.3 120.3 124.5 120 L 128.5 121 L 146.5 102 Q 175.3 75.8 215.5 61 L 240.5 53 L 262.5 48 L 286.5 45 L 287.5 44 L 305.5 43 L 306.5 42 L 321.5 42 L 322.5 41 Z M 321 48 L 320 49 L 294 50 L 293 51 L 285 51 L 284 52 L 265 54 L 234 61 L 218 66 Q 175 81 145 108 L 126 128 L 121 127 L 117 128 L 106 139 L 90 163 Q 69 198 52 237 L 57 239 L 57 242 L 51 253 L 47 266 L 44 283 L 44 290 L 43 291 L 43 302 L 42 303 L 42 348 L 43 349 L 43 364 L 45 366 L 70 345 L 75 383 L 85 417 Q 99 451 121 478 Q 158 520 216 543 L 249 554 L 279 561 L 296 563 L 297 564 L 304 564 L 305 565 L 312 565 L 313 566 L 322 566 L 323 567 L 360 568 L 361 569 L 382 569 L 383 568 L 399 568 L 400 567 L 416 566 L 449 559 L 476 550 Q 535 526 578 485 Q 612 453 640 414 L 668 369 L 677 351 L 679 346 L 679 342 L 677 339 L 671 337 L 631 338 L 630 339 L 608 338 L 594 333 L 588 327 L 576 269 L 567 238 L 556 208 Q 535 155 501 117 Q 470 80 422 61 L 404 55 L 380 50 L 363 49 L 362 48 L 321 48 Z " /><path fill="rgb(0,0,0)" stroke="rgb(0,0,0)" stroke-width="1" opacity="0.5490196078431373" d="M 275.5 149 Q 285.9 147.6 288 154.5 L 293 165.5 L 294 176.5 L 292 187.5 L 285.5 198 L 277.5 201 Q 271.8 199.8 269 195.5 L 264 184.5 L 263 170.5 L 265 161.5 L 268 155.5 L 273.5 150 L 275.5 149 Z " /><path fill="rgb(0,0,0)" stroke="rgb(0,0,0)" stroke-width="1" opacity="0.5490196078431373" d="M 110.5 187 L 115 189.5 Q 118 193.5 118 200.5 L 113.5 210 L 110.5 211 L 107 208.5 Q 104 204.5 104 197.5 L 108.5 188 L 110.5 187 Z " /><path fill="rgb(0,0,0)" stroke="rgb(0,0,0)" stroke-width="1" opacity="0" d="M 0 0 L 726 0 L 726 772 L 0 772 L 0 0 Z M 323 41 L 322 42 L 307 42 L 306 43 L 288 44 L 287 45 L 263 48 L 241 53 L 216 61 Q 175 76 147 102 L 129 121 L 125 120 Q 118 120 116 124 L 104 138 L 85 167 Q 64 203 46 243 Q 47 246 51 245 L 46 257 L 41 275 L 39 294 L 38 295 L 38 306 L 37 307 L 37 356 L 38 357 L 38 371 L 39 373 L 42 373 L 65 353 L 66 356 L 66 365 L 67 366 L 70 389 L 82 428 Q 98 465 124 493 Q 149 518 182 536 L 223 554 L 249 562 L 265 565 L 269 568 Q 270 572 268 574 L 268 592 L 267 593 L 267 608 L 268 609 L 268 617 L 174 638 L 166 648 L 165 652 L 175 651 L 266 630 Q 269 629 270 632 L 268 639 L 247 685 Q 246 690 250 688 L 259 674 L 279 629 L 329 645 L 333 645 L 340 635 L 340 631 L 304 621 L 311 618 L 319 608 L 320 604 L 315 604 L 279 614 L 278 608 L 278 570 L 280 568 L 287 570 L 308 572 L 309 573 L 318 573 L 319 574 L 372 576 L 371 583 L 371 602 L 370 603 L 370 641 L 371 642 L 371 655 L 367 657 L 363 657 L 345 662 L 336 663 L 331 665 L 274 677 L 265 689 L 265 691 L 272 691 L 367 669 L 371 669 L 372 669 L 372 674 L 349 725 L 351 728 L 360 716 L 381 669 L 435 685 L 443 671 L 406 660 L 398 657 L 411 651 L 419 640 L 419 636 L 383 652 L 381 645 L 381 578 L 382 575 L 405 574 L 438 568 L 482 553 Q 536 529 577 490 Q 643 428 684 341 Q 685 335 683 333 L 675 330 L 654 330 L 653 331 L 612 331 L 598 326 L 592 317 L 586 284 L 575 242 L 558 195 Q 538 147 507 112 Q 475 74 426 54 L 400 46 L 384 43 L 367 42 L 366 41 L 323 41 Z " /></svg>